# generated from PmQm by Jehee Lee
:FULLY-SPECIFIED
:DEGREES
440
root 108.27954 39.10022876 -101.3557512 8.366507129 64.77849566 8.085922604
RightUpLeg -16.85737945 -0.220830526 -5.673144127
RightLeg 62.51770672 0.08317234535 -11.587808
RightFoot 7.826390126 26.71207864 -2.33416225
RightToes 2.32829e-010 -1.59028e-015 9.93923e-017
Spine -6.315187585 0.1881540979 -4.080899583
Spine1 11.21637537 0.7403442811 -4.786584006
HEad -9.704885422 -0.1793111848 1.644131506
LeftShoulder1 9.93923e-017 0 1.22299e-017
LeftArm 3.522023335 33.1756349 -76.94828246
LeftForeArm -23.2206879 -14.72302294 -1.994601734
LeftHand 0.92793 6.45217 -3.57146
RightShoulder 1.98785e-016 -4.96962e-017 1.55301e-017
RightArm 20.91748875 -43.21982022 89.5968458
RightForeArm -37.60342559 17.83731527 -3.186553323
RightHand 1.04716 -10.4116 -2.45404
LeftUpLeg -18.35912213 -1.802990486 -0.4646724049
LeftLeg 22.93499352 0 0
LeftFoot -6.541194321 3.922904102 -4.744572571
LeftToes 8.82235e-011 9.04645e-011 1.87288e-011
441
root 109.4937586 39.3243055 -100.7214645 6.429391608 63.80098211 6.229090677
RightUpLeg -19.78940181 -0.5019124812 -3.875703253
RightLeg 60.57012951 2.566347532 -8.486765475
RightFoot 4.589080163 22.06785593 -2.041376361
RightToes 2.32829e-010 -1.59028e-015 9.93923e-017
Spine -6.224798102 -1.022952818 -5.439737597
Spine1 10.74555347 -0.9501929401 -2.762801687
HEad -8.939168264 1.155813541 1.581018609
LeftShoulder1 9.93923e-017 0 1.22299e-017
LeftArm 16.56862281 30.40327029 -78.14285115
LeftForeArm -38.25626847 -20.89606089 4.907431017
LeftHand 0.925915 6.44464 -3.3863
RightShoulder 1.98785e-016 -4.96962e-017 1.55301e-017
RightArm 22.97534893 -47.46687037 88.38872627
RightForeArm -38.47724037 17.9757794 -3.561399452
RightHand 1.02044 -10.2376 -2.25741
LeftUpLeg -15.12678482 -0.9187121968 0.621557866
LeftLeg 22.26554427 0 0
LeftFoot -7.676181751 3.254006281 -5.686467048
LeftToes 8.82235e-011 9.04645e-011 1.87288e-011
442
root 110.6847775 39.45480002 -100.0719121 5.017977109 62.50778859 4.912152777
RightUpLeg -22.48344576 -0.6640054065 -2.377618006
RightLeg 56.60821138 4.32572264 -5.937532206
RightFoot 1.984582451 17.75995374 -0.965781073
RightToes 2.32829e-010 -1.59028e-015 9.93923e-017
Spine -6.476834001 -1.996266867 -6.638626845
Spine1 10.81716567 -2.272585215 -1.176215133
HEad -8.783275448 2.163025137 1.510925589
LeftShoulder1 9.93923e-017 0 1.22299e-017
LeftArm 28.24911652 27.30387139 -78.72481338
LeftForeArm -50.97349422 -24.47461644 12.78925711
LeftHand 0.913312 6.34459 -3.16304
RightShoulder 1.98785e-016 -4.96962e-017 1.55301e-017
RightArm 24.95092971 -51.58391205 86.49370238
RightForeArm -40.64563351 18.51131628 -5.096103606
RightHand 0.9969 -10.0451 -2.20697
LeftUpLeg -11.98886103 0.1857767227 1.49231683
LeftLeg 21.51124482 0 0
LeftFoot -8.532666644 2.741754192 -6.41790929
LeftToes 8.82235e-011 9.04645e-011 1.87288e-011
443
root 111.8658189 39.52211482 -99.40457991 3.948925796 61.34428135 3.926317037
RightUpLeg -24.79131543 -1.349673745 -1.131667815
RightLeg 50.78643278 5.501053877 -4.16796851
RightFoot -0.228900396 13.88793099 0.594686069
RightToes 2.32829e-010 -1.59028e-015 9.93923e-017
Spine -6.788023987 -2.989844041 -7.723762149
Spine1 10.93477683 -3.545371936 0.5403474714
HEad -8.843318695 2.986940174 1.472876773
LeftShoulder1 9.93923e-017 0 1.22299e-017
LeftArm 31.88723707 23.92340025 -78.45912758
LeftForeArm -53.63688285 -26.43298621 17.1456967
LeftHand 0.89027 6.12658 -3.34082
RightShoulder 1.98785e-016 -4.96962e-017 1.55301e-017
RightArm 27.40953019 -55.24304649 84.25524685
RightForeArm -43.19013309 19.08278336 -7.056815929
RightHand 1.02418 -10.1508 -2.66158
LeftUpLeg -8.755436121 1.051160064 2.212049309
LeftLeg 20.37958778 0 0
LeftFoot -9.426172603 2.449063766 -7.007813137
LeftToes 8.82235e-011 9.04645e-011 1.87288e-011
444
root 113.0165756 39.52645185 -98.7331133 3.126613347 60.45773832 3.145166563
RightUpLeg -26.64977762 -2.681523887 -0.1498519964
RightLeg 43.24759332 6.345783461 -2.925291815
RightFoot -0.9764226522 10.6235326 2.030200213
RightToes 2.32829e-010 -1.59028e-015 9.93923e-017
Spine -6.845519161 -4.022498645 -8.720262644
Spine1 10.81351879 -4.81636505 2.402248215
HEad -8.700458735 3.742787612 1.490087455
LeftShoulder1 9.93923e-017 0 1.22299e-017
LeftArm 30.01286693 20.50987836 -77.73300493
LeftForeArm -49.90317989 -28.37589464 18.07386607
LeftHand 0.874162 5.96507 -3.53657
RightShoulder 1.98785e-016 -4.96962e-017 1.55301e-017
RightArm 28.9357223 -58.30468862 81.8964138
RightForeArm -44.13277519 19.34946355 -8.402974779
RightHand 1.06596 -10.3388 -3.23031
LeftUpLeg -5.703811328 1.312845033 2.730661087
LeftLeg 19.24929338 0 0
LeftFoot -10.65612741 2.720221076 -7.433545621
LeftToes 8.82235e-011 9.04645e-011 1.87288e-011
